<svg xmlns="http://www.w3.org/2000/svg" viewBox="0 0 165.99 197.77"><defs><style>.cls-1{fill:#fff;}</style></defs><title>Recurso 25</title><g id="Capa_2" data-name="Capa 2"><g id="Capa_8" data-name="Capa 8"><path class="cls-1" d="M5.87,29.94C2.26,29.46,0,29.88,0,34.5c.19,28-.21,56,.39,83.91.45,21.5,7.17,40.91,23.58,55.81,14.78,13.43,32.5,19.82,53.9,21.35-.69-34.15.76-67.33-2.55-100C71.2,55,40.89,34.56,5.87,29.94ZM67.17,181.8a11.9,11.9,0,0,1-.46,2.08c-26.91-3.82-48.6-22.23-54.32-49.31a118,118,0,0,1-2.4-22.5C9.67,90.52,9.87,69,9.87,47.42V41a53.87,53.87,0,0,1,5.59.73c31.37,7.75,50.38,31.05,51.51,65C67.8,131.69,67.17,156.75,67.17,181.8Z"/><path class="cls-1" d="M166,71.86c-27.44-2.15-59.16,18.6-70,44.6-10.66,25.61-5.51,52.34-7.15,79.87,6-1,10.83-1.55,15.52-2.56,34.64-7.5,57.08-31.82,60.43-67,1.5-15.77.86-31.74,1.18-47.62C166,76.69,166,74.24,166,71.86Zm-18.42,79.86c-10.27,19-27.07,28.52-48.74,33.25.33-26.61-3.49-52.82,12.47-75.8C121.93,93.82,137.21,86,156,82.13,155.25,106.06,159.4,129.8,147.55,151.72Z"/><path class="cls-1" d="M32.63,18.25c44-19.5,92.3-4,115.76,37.28,3.77,6.61,4.17,6.74,12.41,4C137.84,2,62.79-18.4,13.44,18.69,23.69,22.21,23.69,22.21,32.63,18.25Z"/><path class="cls-1" d="M140.26,63.9c-19.69-40.21-69-52.57-100-36.28,5,3.23,9,6.08,15.86,4.59,22.46-4.92,42.85.39,60,15.85,5.95,5.37,10.59,12.19,16.16,18.74Z"/><path class="cls-1" d="M60.41,43.56c4.56,3,8,7.19,11.85,7.55,17.09,1.58,30.06,9.18,39.23,23.57.57.9,1.31,1.7,2.09,2.69l7.38-5C110.61,49.22,80,37.12,60.41,43.56Z"/><path class="cls-1" d="M158.55,184.08a3.48,3.48,0,0,0-1.19-2.73,5.3,5.3,0,0,0-3.63-1.06h-5.92v12.77h2.73V187.9h3.05l2.08,5.16h2.87l-2.36-5.61A3.44,3.44,0,0,0,158.55,184.08Zm-5.21,1.79h-2.8V182.3h3c1.45,0,2.18.58,2.18,1.75S154.94,185.87,153.34,185.87Z"/><path class="cls-1" d="M153,175.58a11.1,11.1,0,0,0,0,22.19,10.58,10.58,0,0,0,7.78-3.26,11.09,11.09,0,0,0,0-15.67A10.55,10.55,0,0,0,153,175.58Zm6.34,17.69a8.89,8.89,0,0,1-12.8,0,9.44,9.44,0,0,1,0-13.17,8.67,8.67,0,0,1,6.46-2.74,8.55,8.55,0,0,1,6.37,2.74,9.46,9.46,0,0,1,0,13.17Z"/></g></g></svg>